Coordinates
version=1
nRows=14
nColumns=36
inDegrees=yes

Units are S.I. units (second, meters, Newtons, ...)
If the header above contains a line with 'inDegrees', this indicates whether rotational values are in degrees (yes) or radians (no).

endheader
time	pelvis_tilt	pelvis_list	pelvis_rotation	pelvis_tx	pelvis_ty	pelvis_tz	hip_flexion_r	hip_adduction_r	hip_rotation_r	knee_angle_r	knee_angle_r_beta	ankle_angle_r	subtalar_angle_r	mtp_angle_r	hip_flexion_l	hip_adduction_l	hip_rotation_l	knee_angle_l	knee_angle_l_beta	ankle_angle_l	subtalar_angle_l	mtp_angle_l	lumbar_extension	lumbar_bending	lumbar_rotation	arm_flex_r	arm_add_r	arm_rot_r	elbow_flex_r	pro_sup_r	arm_flex_l	arm_add_l	arm_rot_l	elbow_flex_l	pro_sup_l
      2.98333330	     -8.55016409	     -3.07668811	     11.32569673	      0.71653834	      0.89579138	      0.18310739	     37.75320584	     -6.44498441	     -1.22979697	     60.38804619	      1.05397023	     37.17410785	     -4.07438328	     -7.49999987	     39.74879866	    -10.56676817	      1.53016935	     59.60683811	      1.04033558	     39.96838194	     -0.72337816	     -7.49999987	    -22.01380859	      2.49855011	      3.34401260	      7.04383030	    -30.84315436	     -5.91489083	     20.59754982	     78.03557711	      5.30628165	    -26.38160624	    -13.11746989	     22.26568045	     87.78435946
      3.00000000	     -5.38556543	     -2.19268029	     11.71057549	      0.73421502	      0.92415536	      0.18079273	     29.42095464	     -6.63452419	     -2.39519505	     53.74107494	      0.93795870	     34.37007847	     -4.71079985	     -7.49999987	     31.20495797	    -10.25307299	      0.63988218	     52.62542917	      0.91848701	     36.73207247	     -0.59520990	     -7.49999987	    -19.48891101	      2.42461503	      3.62329351	     -3.19952905	    -31.28654069	    -13.88239266	     15.99913820	     86.08810832	     -3.64650497	    -28.08816912	    -17.37691344	     18.23070607	     89.39905510
      3.01666670	     -4.01076712	     -1.71251839	     11.96562102	      0.74164763	      0.95162372	      0.18123063	     23.34536214	     -6.77957818	     -3.91730497	     47.10099350	      0.82206742	     31.07662775	     -4.96168732	     -7.49999987	     25.02443491	    -10.27326840	     -0.72220852	     45.71067129	      0.79780172	     33.08038708	      0.13972067	     -7.49999987	    -15.90202362	      2.47430357	      3.72671638	    -12.82322299	    -31.95574126	    -14.86494546	     11.17648098	     84.34990876	    -13.08963929	    -30.21104542	    -18.73448946	     15.94948184	     86.87848444
      3.03333330	     -3.33221188	     -1.42415647	     12.08118787	      0.75499284	      0.98044342	      0.18078735	     18.10739677	     -6.76149184	     -5.71309216	     40.17741556	      0.70122819	     26.98203690	     -4.91878916	     -7.49999987	     19.68883615	    -10.36613500	     -2.28036115	     38.59024143	      0.67352677	     28.74730834	      1.11872617	     -7.49999987	    -12.77301542	      2.40502865	      3.93473103	    -22.38878544	    -32.52238570	    -21.01749616	      7.48173505	     93.27386850	    -23.32897531	    -32.00724058	    -22.50812812	     15.52197242	     89.44709312
      3.05000000	     -2.68479819	     -1.34275865	     11.94232115	      0.76902143	      1.01055155	      0.18019011	     12.98694788	     -6.39043929	     -7.67439925	     32.77078836	      0.57195816	     22.25514131	     -4.17705344	     -7.49999987	     14.12794637	    -10.67096316	     -4.39813520	     30.48308242	      0.53203015	     23.60183781	      2.75120690	     -7.49999987	    -10.59227328	      2.68248292	      3.73023486	    -32.93852686	    -33.66512288	    -22.59984175	      6.79011464	     91.68532273	    -34.84268999	    -33.94282793	    -24.00432729	     19.17431185	     88.02806766
      3.06666670	     -1.81733679	     -1.29283924	     11.77303200	      0.78349648	      1.04698825	      0.17104062	      7.16013327	     -5.88866117	     -9.84470999	     24.02348293	      0.41928887	     16.51917573	     -2.45049964	     -7.49999987	      7.84286904	    -10.72312899	     -7.08608900	     21.14532019	      0.36905546	     17.14485770	      5.12691759	     -7.49999987	     -8.89824511	      3.03663663	      2.09298071	    -40.89705484	    -35.29002691	    -23.21992556	      7.02234180	     91.89813797	    -46.44315523	    -32.09116939	    -32.69063576	     28.01323513	     87.83777412
      3.08333330	     -1.73773199	     -1.60889868	     11.83046996	      0.80455154	      1.08830448	      0.16932618	      2.16331497	     -4.95900081	    -12.52847938	     15.07054691	      0.26303066	     10.05668037	      0.74636164	     -7.49999987	      2.68565275	    -10.77201743	     -9.08676755	     12.11433724	      0.21143507	     10.27958018	      8.28433501	     -7.49999987	     -5.81228781	      3.31443735	      1.13147749	    -47.57579503	    -35.37980144	    -24.97284912	      6.86259644	     92.25514268	    -54.07050378	    -29.50336285	    -40.39891835	     34.32175212	     87.49977338
      3.10000000	     -2.89078410	     -2.22154176	     11.77581051	      0.81189070	      1.11608911	      0.16719618	      0.55341575	     -4.01455657	    -14.38759079	      9.10011841	      0.15882703	      3.77037963	      2.98885038	     -7.49999987	      0.83930678	    -10.97318582	     -9.55704530	      6.13605643	      0.10709439	      4.83905632	     10.54220972	     -7.49999987	     -1.28201526	      3.16627918	     -1.23008765	    -48.26663138	    -37.40259577	    -62.44710524	      1.89834436	    112.06029184	    -61.07874225	    -25.17461724	    -47.83295100	     40.17845431	     89.03779464
      3.11666670	     -4.51820247	     -2.95125173	     12.06192838	      0.82205926	      1.16710308	      0.17037469	      0.35728764	     -3.04570841	    -15.90245990	      4.66512945	      0.08142187	     -2.52651927	      4.01462513	     -7.49999987	      0.65491117	    -11.33188098	     -9.32925111	      2.01119544	      0.03510198	      0.13348247	     11.82934375	     -7.49999987	      3.48193737	      3.36277870	     -2.01482162	    -51.50484467	    -35.95872614	    -61.48454797	      2.20787908	    110.07159482	    -61.71501850	    -23.16508083	    -49.26191815	     39.89155891	     85.65456835
      3.13333330	     -5.66974217	     -3.43092757	     12.66561286	      0.82508509	      1.19574056	      0.17187859	      0.68973600	     -2.40637838	    -17.10102298	      2.47458598	      0.04318967	     -6.56668830	      4.28342850	     -7.49999987	      1.55255235	    -11.57838464	     -9.30287548	      0.58928811	      0.01028502	     -1.59010553	     12.06239464	     -7.49999987	      7.13468078	      3.41767816	     -2.62371736	    -53.74834315	    -34.58190093	    -60.30705611	      2.66439361	    106.37800260	    -61.52016577	    -22.69059973	    -49.53217447	     39.51078930	     83.30851466
      3.15000000	     -6.32890898	     -3.53915479	     13.15006833	      0.82806255	      1.21092487	      0.17331380	      0.88457533	     -2.23711241	    -17.99366814	      1.52380422	      0.02659540	     -9.77807284	      4.34239406	     -7.49999987	      2.10085954	    -11.52250537	     -9.79377839	      0.36930018	      0.00644550	     -3.32754275	     12.14002222	     -7.49999987	      9.82382783	      3.14464709	     -2.80873647	    -54.33757513	    -33.31669160	    -58.05418264	      2.69947827	    102.94349971	    -60.87326122	    -22.95006172	    -48.41112006	     38.34350488	     79.22324978
      3.16666670	     -6.65350764	     -3.58932862	     13.49311335	      0.82284468	      1.23059916	      0.17586295	      0.98888109	     -2.08565255	    -18.52524640	      1.30544018	      0.02278423	    -12.50470620	      4.62842364	     -7.49999987	      2.11373960	    -11.41789866	    -10.15097635	      0.33988594	      0.00593213	     -5.18778252	     12.25968585	     -7.49999987	     11.53032149	      2.98427221	     -2.53794118	    -53.64603457	    -31.99583087	    -47.70919318	      3.25718113	     98.16809232	    -59.25802053	    -23.86065056	    -44.97870360	     37.34940773	     76.85182042
      3.18333330	     -6.40528249	     -3.46520657	     13.49428473	      0.82163342	      1.24084967	      0.17542477	      0.62780470	     -2.00587802	    -18.87112987	      1.49127369	      0.02602764	    -15.01604720	      4.73285608	     -7.49999987	      1.39403961	    -11.28318808	    -10.82235306	      0.40326240	      0.00703826	     -7.08244660	     12.30305230	     -7.49999987	     12.03030444	      2.92905280	     -1.52740189	    -53.53855979	    -31.35453417	    -37.71840330	      4.25869971	     88.91122177	    -57.99774289	    -25.75421408	    -40.74566453	     36.59667303	     75.86213383
      3.20000000	     -6.23584081	     -3.34092362	     13.89022753	      0.82110995	      1.26848333	      0.17497140	      0.30501217	     -2.01550775	    -19.21266500	      1.63362441	      0.02851212	    -16.73937057	      4.66518475	     -7.49999987	      1.14503169	    -11.04794236	    -11.17326859	      0.48163250	      0.00840607	     -8.22099610	     12.36992334	     -7.49999987	     12.48722999	      2.75307506	     -1.15932361	    -51.01118216	    -30.48794537	    -34.51314675	      4.54078449	     86.34122355	    -55.20669733	    -26.24879949	    -37.18390969	     34.65262523	     76.09626680
